solid OpenSCAD_Model
  facet normal 0 0 -1
    outer loop
      vertex -5 0 0
      vertex -4.89074 1.03956 0
      vertex -4.89074 -1.03956 0
    endloop
  endfacet
  facet normal 0 0 -1
    outer loop
      vertex -4.89074 -1.03956 0
      vertex -4.89074 1.03956 0
      vertex -4.56773 2.03368 0
    endloop
  endfacet
  facet normal 0 0 -1
    outer loop
      vertex -4.89074 -1.03956 0
      vertex -4.56773 2.03368 0
      vertex -4.04508 2.93893 0
    endloop
  endfacet
  facet normal 0 0 -1
    outer loop
      vertex -4.89074 -1.03956 0
      vertex -4.04508 2.93893 0
      vertex -3.34565 3.71572 0
    endloop
  endfacet
  facet normal 0 0 -1
    outer loop
      vertex -4.89074 -1.03956 0
      vertex -3.34565 3.71572 0
      vertex -2.5 4.33013 0
    endloop
  endfacet
  facet normal 0 0 -1
    outer loop
      vertex -4.89074 -1.03956 0
      vertex -2.5 4.33013 0
      vertex -1.54508 4.75528 0
    endloop
  endfacet
  facet normal 0 0 -1
    outer loop
      vertex -4.89074 -1.03956 0
      vertex -1.54508 4.75528 0
      vertex -0.522642 4.97261 0
    endloop
  endfacet
  facet normal 0 0 -1
    outer loop
      vertex -4.89074 -1.03956 0
      vertex -0.522642 4.97261 0
      vertex 0.522642 4.97261 0
    endloop
  endfacet
  facet normal 0 0 -1
    outer loop
      vertex -4.89074 -1.03956 0
      vertex 0.522642 4.97261 0
      vertex 1.54508 4.75528 0
    endloop
  endfacet
  facet normal 0 0 -1
    outer loop
      vertex -0.710739 2.18743 0
      vertex 1.54508 4.75528 0
      vertex 2.5 4.33013 0
    endloop
  endfacet
  facet normal 0 0 -1
    outer loop
      vertex 0 2.3 0
      vertex 2.5 4.33013 0
      vertex 3.34565 3.71572 0
    endloop
  endfacet
  facet normal 0 0 -1
    outer loop
      vertex 1.35191 1.86074 0
      vertex 3.34565 3.71572 0
      vertex 4.04508 2.93893 0
    endloop
  endfacet
  facet normal 0 0 -1
    outer loop
      vertex 1.86074 1.35191 0
      vertex 4.04508 2.93893 0
      vertex 4.56773 2.03368 0
    endloop
  endfacet
  facet normal 0 0 -1
    outer loop
      vertex 2.18743 0.710739 0
      vertex 4.56773 2.03368 0
      vertex 4.89074 1.03956 0
    endloop
  endfacet
  facet normal 0 0 -1
    outer loop
      vertex 2.3 0 0
      vertex 4.89074 1.03956 0
      vertex 5 0 0
    endloop
  endfacet
  facet normal 0 0 -1
    outer loop
      vertex 2.18743 -0.710739 0
      vertex 5 0 0
      vertex 4.89074 -1.03956 0
    endloop
  endfacet
  facet normal 0 0 -1
    outer loop
      vertex 1.86074 -1.35191 0
      vertex 4.89074 -1.03956 0
      vertex 4.56773 -2.03368 0
    endloop
  endfacet
  facet normal 0 0 -1
    outer loop
      vertex 0.710739 -2.18743 0
      vertex 4.56773 -2.03368 0
      vertex 4.04508 -2.93893 0
    endloop
  endfacet
  facet normal 0 0 -1
    outer loop
      vertex 0 -2.3 0
      vertex 4.04508 -2.93893 0
      vertex 3.34565 -3.71572 0
    endloop
  endfacet
  facet normal 0 0 -1
    outer loop
      vertex -4.89074 -1.03956 0
      vertex 3.34565 -3.71572 0
      vertex 2.5 -4.33013 0
    endloop
  endfacet
  facet normal 0 0 -1
    outer loop
      vertex -4.89074 -1.03956 0
      vertex 2.5 -4.33013 0
      vertex 1.54508 -4.75528 0
    endloop
  endfacet
  facet normal 0 0 -1
    outer loop
      vertex -4.89074 -1.03956 0
      vertex 1.54508 -4.75528 0
      vertex 0.522642 -4.97261 0
    endloop
  endfacet
  facet normal 0 0 -1
    outer loop
      vertex -4.89074 -1.03956 0
      vertex 0.522642 -4.97261 0
      vertex -0.522642 -4.97261 0
    endloop
  endfacet
  facet normal 0 0 -1
    outer loop
      vertex -4.89074 -1.03956 0
      vertex -0.522642 -4.97261 0
      vertex -1.54508 -4.75528 0
    endloop
  endfacet
  facet normal 0 0 -1
    outer loop
      vertex -4.89074 -1.03956 0
      vertex -1.54508 -4.75528 0
      vertex -2.5 -4.33013 0
    endloop
  endfacet
  facet normal 0 0 -1
    outer loop
      vertex -4.89074 -1.03956 0
      vertex -2.5 -4.33013 0
      vertex -3.34565 -3.71572 0
    endloop
  endfacet
  facet normal 0 0 -1
    outer loop
      vertex -4.89074 -1.03956 0
      vertex -3.34565 -3.71572 0
      vertex -4.04508 -2.93893 0
    endloop
  endfacet
  facet normal 0 0 -1
    outer loop
      vertex -4.89074 -1.03956 0
      vertex -4.04508 -2.93893 0
      vertex -4.56773 -2.03368 0
    endloop
  endfacet
  facet normal 0 0 -1
    outer loop
      vertex -2.18743 -0.710739 0
      vertex -4.89074 -1.03956 0
      vertex -2.3 0 0
    endloop
  endfacet
  facet normal 0 0 -1
    outer loop
      vertex -1.86074 -1.35191 0
      vertex -4.89074 -1.03956 0
      vertex -2.18743 -0.710739 0
    endloop
  endfacet
  facet normal 0 0 -1
    outer loop
      vertex 1.86074 -1.35191 0
      vertex 4.56773 -2.03368 0
      vertex 1.35191 -1.86074 0
    endloop
  endfacet
  facet normal 0 0 -1
    outer loop
      vertex -1.35191 -1.86074 0
      vertex -4.89074 -1.03956 0
      vertex -1.86074 -1.35191 0
    endloop
  endfacet
  facet normal 0 0 -1
    outer loop
      vertex 0 -2.3 0
      vertex 3.34565 -3.71572 0
      vertex -0.710739 -2.18743 0
    endloop
  endfacet
  facet normal 0 0 -1
    outer loop
      vertex -4.89074 -1.03956 0
      vertex -1.35191 -1.86074 0
      vertex -0.710739 -2.18743 0
    endloop
  endfacet
  facet normal 0 0 -1
    outer loop
      vertex -4.89074 -1.03956 0
      vertex -0.710739 -2.18743 0
      vertex 3.34565 -3.71572 0
    endloop
  endfacet
  facet normal 0 0 -1
    outer loop
      vertex 0.710739 -2.18743 0
      vertex 4.04508 -2.93893 0
      vertex 0 -2.3 0
    endloop
  endfacet
  facet normal 0 0 -1
    outer loop
      vertex 1.35191 -1.86074 0
      vertex 4.56773 -2.03368 0
      vertex 0.710739 -2.18743 0
    endloop
  endfacet
  facet normal 0 0 -1
    outer loop
      vertex 2.18743 -0.710739 0
      vertex 4.89074 -1.03956 0
      vertex 1.86074 -1.35191 0
    endloop
  endfacet
  facet normal 0 0 -1
    outer loop
      vertex 2.18743 0.710739 0
      vertex 4.89074 1.03956 0
      vertex 2.3 0 0
    endloop
  endfacet
  facet normal 0 0 -1
    outer loop
      vertex 2.3 0 0
      vertex 5 0 0
      vertex 2.18743 -0.710739 0
    endloop
  endfacet
  facet normal 0 0 -1
    outer loop
      vertex 1.35191 1.86074 0
      vertex 4.04508 2.93893 0
      vertex 1.86074 1.35191 0
    endloop
  endfacet
  facet normal 0 0 -1
    outer loop
      vertex 0.710739 2.18743 0
      vertex 3.34565 3.71572 0
      vertex 1.35191 1.86074 0
    endloop
  endfacet
  facet normal 0 0 -1
    outer loop
      vertex 1.86074 1.35191 0
      vertex 4.56773 2.03368 0
      vertex 2.18743 0.710739 0
    endloop
  endfacet
  facet normal 0 0 -1
    outer loop
      vertex -0.710739 2.18743 0
      vertex 2.5 4.33013 0
      vertex 0 2.3 0
    endloop
  endfacet
  facet normal 0 0 -1
    outer loop
      vertex -1.35191 1.86074 0
      vertex 1.54508 4.75528 0
      vertex -0.710739 2.18743 0
    endloop
  endfacet
  facet normal 0 0 -1
    outer loop
      vertex -2.18743 0.710739 0
      vertex -4.89074 -1.03956 0
      vertex -1.86074 1.35191 0
    endloop
  endfacet
  facet normal 0 0 -1
    outer loop
      vertex -4.89074 -1.03956 0
      vertex 1.54508 4.75528 0
      vertex -1.35191 1.86074 0
    endloop
  endfacet
  facet normal 0 0 -1
    outer loop
      vertex -4.89074 -1.03956 0
      vertex -1.35191 1.86074 0
      vertex -1.86074 1.35191 0
    endloop
  endfacet
  facet normal 0 0 -1
    outer loop
      vertex -2.3 0 0
      vertex -4.89074 -1.03956 0
      vertex -2.18743 0.710739 0
    endloop
  endfacet
  facet normal 0 0 -1
    outer loop
      vertex 0 2.3 0
      vertex 3.34565 3.71572 0
      vertex 0.710739 2.18743 0
    endloop
  endfacet
  facet normal -0.994522 0.104529 0
    outer loop
      vertex -5 0 0
      vertex -5 0 11.6
      vertex -4.89074 1.03956 0
    endloop
  endfacet
  facet normal -0.994522 0.104529 0
    outer loop
      vertex -4.89074 1.03956 0
      vertex -5 0 11.6
      vertex -4.89074 1.03956 11.6
    endloop
  endfacet
  facet normal -0.994522 -0.104529 0
    outer loop
      vertex -5 0 0
      vertex -4.89074 -1.03956 0
      vertex -5 0 11.6
    endloop
  endfacet
  facet normal -0.994522 -0.104529 0
    outer loop
      vertex -5 0 11.6
      vertex -4.89074 -1.03956 0
      vertex -4.89074 -1.03956 11.6
    endloop
  endfacet
  facet normal -0.951056 -0.309017 0
    outer loop
      vertex -4.89074 -1.03956 0
      vertex -4.56773 -2.03368 0
      vertex -4.89074 -1.03956 11.6
    endloop
  endfacet
  facet normal -0.951056 -0.309017 0
    outer loop
      vertex -4.89074 -1.03956 11.6
      vertex -4.56773 -2.03368 0
      vertex -4.56773 -2.03368 11.6
    endloop
  endfacet
  facet normal -0.866026 -0.5 0
    outer loop
      vertex -4.56773 -2.03368 0
      vertex -4.04508 -2.93893 0
      vertex -4.56773 -2.03368 11.6
    endloop
  endfacet
  facet normal -0.866026 -0.5 0
    outer loop
      vertex -4.56773 -2.03368 11.6
      vertex -4.04508 -2.93893 0
      vertex -4.04508 -2.93893 11.6
    endloop
  endfacet
  facet normal -0.743145 -0.669131 0
    outer loop
      vertex -4.04508 -2.93893 0
      vertex -3.34565 -3.71572 0
      vertex -4.04508 -2.93893 11.6
    endloop
  endfacet
  facet normal -0.743145 -0.669131 0
    outer loop
      vertex -4.04508 -2.93893 11.6
      vertex -3.34565 -3.71572 0
      vertex -3.34565 -3.71572 11.6
    endloop
  endfacet
  facet normal -0.587785 -0.809017 0
    outer loop
      vertex -3.34565 -3.71572 11.6
      vertex -3.34565 -3.71572 0
      vertex -2.5 -4.33013 0
    endloop
  endfacet
  facet normal -0.587785 -0.809017 0
    outer loop
      vertex -2.5 -4.33013 11.6
      vertex -3.34565 -3.71572 11.6
      vertex -2.5 -4.33013 0
    endloop
  endfacet
  facet normal -0.406737 -0.913545 0
    outer loop
      vertex -2.5 -4.33013 11.6
      vertex -2.5 -4.33013 0
      vertex -1.54508 -4.75528 0
    endloop
  endfacet
  facet normal -0.406737 -0.913545 0
    outer loop
      vertex -1.54508 -4.75528 11.6
      vertex -2.5 -4.33013 11.6
      vertex -1.54508 -4.75528 0
    endloop
  endfacet
  facet normal -0.207911 -0.978148 0
    outer loop
      vertex -1.54508 -4.75528 11.6
      vertex -1.54508 -4.75528 0
      vertex -0.522642 -4.97261 0
    endloop
  endfacet
  facet normal -0.207911 -0.978148 0
    outer loop
      vertex -0.522642 -4.97261 11.6
      vertex -1.54508 -4.75528 11.6
      vertex -0.522642 -4.97261 0
    endloop
  endfacet
  facet normal 0 -1 0
    outer loop
      vertex -0.522642 -4.97261 11.6
      vertex -0.522642 -4.97261 0
      vertex 0.522642 -4.97261 0
    endloop
  endfacet
  facet normal 0 -1 0
    outer loop
      vertex 0.522642 -4.97261 11.6
      vertex -0.522642 -4.97261 11.6
      vertex 0.522642 -4.97261 0
    endloop
  endfacet
  facet normal 0.207911 -0.978148 0
    outer loop
      vertex 0.522642 -4.97261 11.6
      vertex 0.522642 -4.97261 0
      vertex 1.54508 -4.75528 0
    endloop
  endfacet
  facet normal 0.207911 -0.978148 0
    outer loop
      vertex 1.54508 -4.75528 11.6
      vertex 0.522642 -4.97261 11.6
      vertex 1.54508 -4.75528 0
    endloop
  endfacet
  facet normal 0.406737 -0.913545 0
    outer loop
      vertex 1.54508 -4.75528 11.6
      vertex 1.54508 -4.75528 0
      vertex 2.5 -4.33013 0
    endloop
  endfacet
  facet normal 0.406737 -0.913545 0
    outer loop
      vertex 2.5 -4.33013 11.6
      vertex 1.54508 -4.75528 11.6
      vertex 2.5 -4.33013 0
    endloop
  endfacet
  facet normal 0.587785 -0.809017 0
    outer loop
      vertex 2.5 -4.33013 11.6
      vertex 2.5 -4.33013 0
      vertex 3.34565 -3.71572 0
    endloop
  endfacet
  facet normal 0.587785 -0.809017 0
    outer loop
      vertex 3.34565 -3.71572 11.6
      vertex 2.5 -4.33013 11.6
      vertex 3.34565 -3.71572 0
    endloop
  endfacet
  facet normal 0.743145 -0.669131 0
    outer loop
      vertex 3.34565 -3.71572 11.6
      vertex 3.34565 -3.71572 0
      vertex 4.04508 -2.93893 0
    endloop
  endfacet
  facet normal 0.743145 -0.669131 0
    outer loop
      vertex 4.04508 -2.93893 11.6
      vertex 3.34565 -3.71572 11.6
      vertex 4.04508 -2.93893 0
    endloop
  endfacet
  facet normal 0.866026 -0.5 0
    outer loop
      vertex 4.04508 -2.93893 11.6
      vertex 4.04508 -2.93893 0
      vertex 4.56773 -2.03368 0
    endloop
  endfacet
  facet normal 0.866026 -0.5 0
    outer loop
      vertex 4.56773 -2.03368 11.6
      vertex 4.04508 -2.93893 11.6
      vertex 4.56773 -2.03368 0
    endloop
  endfacet
  facet normal 0.951056 -0.309017 0
    outer loop
      vertex 4.56773 -2.03368 11.6
      vertex 4.56773 -2.03368 0
      vertex 4.89074 -1.03956 0
    endloop
  endfacet
  facet normal 0.951056 -0.309017 0
    outer loop
      vertex 4.89074 -1.03956 11.6
      vertex 4.56773 -2.03368 11.6
      vertex 4.89074 -1.03956 0
    endloop
  endfacet
  facet normal 0.994522 -0.104529 0
    outer loop
      vertex 4.89074 -1.03956 11.6
      vertex 4.89074 -1.03956 0
      vertex 5 0 0
    endloop
  endfacet
  facet normal 0.994522 -0.104529 0
    outer loop
      vertex 5 0 11.6
      vertex 4.89074 -1.03956 11.6
      vertex 5 0 0
    endloop
  endfacet
  facet normal 0.994522 0.104529 0
    outer loop
      vertex 5 0 0
      vertex 4.89074 1.03956 0
      vertex 4.89074 1.03956 11.6
    endloop
  endfacet
  facet normal 0.994522 0.104529 0
    outer loop
      vertex 5 0 11.6
      vertex 5 0 0
      vertex 4.89074 1.03956 11.6
    endloop
  endfacet
  facet normal 0.951056 0.309017 0
    outer loop
      vertex 4.89074 1.03956 0
      vertex 4.56773 2.03368 0
      vertex 4.56773 2.03368 11.6
    endloop
  endfacet
  facet normal 0.951056 0.309017 0
    outer loop
      vertex 4.89074 1.03956 11.6
      vertex 4.89074 1.03956 0
      vertex 4.56773 2.03368 11.6
    endloop
  endfacet
  facet normal 0.866026 0.5 0
    outer loop
      vertex 4.56773 2.03368 0
      vertex 4.04508 2.93893 0
      vertex 4.04508 2.93893 11.6
    endloop
  endfacet
  facet normal 0.866026 0.5 0
    outer loop
      vertex 4.56773 2.03368 11.6
      vertex 4.56773 2.03368 0
      vertex 4.04508 2.93893 11.6
    endloop
  endfacet
  facet normal 0.743145 0.669131 0
    outer loop
      vertex 4.04508 2.93893 0
      vertex 3.34565 3.71572 0
      vertex 3.34565 3.71572 11.6
    endloop
  endfacet
  facet normal 0.743145 0.669131 0
    outer loop
      vertex 4.04508 2.93893 11.6
      vertex 4.04508 2.93893 0
      vertex 3.34565 3.71572 11.6
    endloop
  endfacet
  facet normal 0.587785 0.809017 0
    outer loop
      vertex 2.5 4.33013 0
      vertex 2.5 4.33013 11.6
      vertex 3.34565 3.71572 0
    endloop
  endfacet
  facet normal 0.587785 0.809017 0
    outer loop
      vertex 3.34565 3.71572 0
      vertex 2.5 4.33013 11.6
      vertex 3.34565 3.71572 11.6
    endloop
  endfacet
  facet normal 0.406737 0.913545 0
    outer loop
      vertex 1.54508 4.75528 0
      vertex 1.54508 4.75528 11.6
      vertex 2.5 4.33013 0
    endloop
  endfacet
  facet normal 0.406737 0.913545 0
    outer loop
      vertex 2.5 4.33013 0
      vertex 1.54508 4.75528 11.6
      vertex 2.5 4.33013 11.6
    endloop
  endfacet
  facet normal 0.207911 0.978148 0
    outer loop
      vertex 0.522642 4.97261 0
      vertex 0.522642 4.97261 11.6
      vertex 1.54508 4.75528 0
    endloop
  endfacet
  facet normal 0.207911 0.978148 0
    outer loop
      vertex 1.54508 4.75528 0
      vertex 0.522642 4.97261 11.6
      vertex 1.54508 4.75528 11.6
    endloop
  endfacet
  facet normal 0 1 0
    outer loop
      vertex -0.522642 4.97261 0
      vertex -0.522642 4.97261 11.6
      vertex 0.522642 4.97261 0
    endloop
  endfacet
  facet normal 0 1 0
    outer loop
      vertex 0.522642 4.97261 0
      vertex -0.522642 4.97261 11.6
      vertex 0.522642 4.97261 11.6
    endloop
  endfacet
  facet normal -0.207911 0.978148 0
    outer loop
      vertex -1.54508 4.75528 0
      vertex -1.54508 4.75528 11.6
      vertex -0.522642 4.97261 0
    endloop
  endfacet
  facet normal -0.207911 0.978148 0
    outer loop
      vertex -0.522642 4.97261 0
      vertex -1.54508 4.75528 11.6
      vertex -0.522642 4.97261 11.6
    endloop
  endfacet
  facet normal -0.406737 0.913545 0
    outer loop
      vertex -2.5 4.33013 0
      vertex -2.5 4.33013 11.6
      vertex -1.54508 4.75528 0
    endloop
  endfacet
  facet normal -0.406737 0.913545 0
    outer loop
      vertex -1.54508 4.75528 0
      vertex -2.5 4.33013 11.6
      vertex -1.54508 4.75528 11.6
    endloop
  endfacet
  facet normal -0.587785 0.809017 0
    outer loop
      vertex -3.34565 3.71572 0
      vertex -3.34565 3.71572 11.6
      vertex -2.5 4.33013 0
    endloop
  endfacet
  facet normal -0.587785 0.809017 0
    outer loop
      vertex -2.5 4.33013 0
      vertex -3.34565 3.71572 11.6
      vertex -2.5 4.33013 11.6
    endloop
  endfacet
  facet normal -0.743145 0.669131 0
    outer loop
      vertex -4.04508 2.93893 0
      vertex -4.04508 2.93893 11.6
      vertex -3.34565 3.71572 0
    endloop
  endfacet
  facet normal -0.743145 0.669131 0
    outer loop
      vertex -3.34565 3.71572 0
      vertex -4.04508 2.93893 11.6
      vertex -3.34565 3.71572 11.6
    endloop
  endfacet
  facet normal -0.866026 0.5 0
    outer loop
      vertex -4.56773 2.03368 0
      vertex -4.56773 2.03368 11.6
      vertex -4.04508 2.93893 0
    endloop
  endfacet
  facet normal -0.866026 0.5 0
    outer loop
      vertex -4.04508 2.93893 0
      vertex -4.56773 2.03368 11.6
      vertex -4.04508 2.93893 11.6
    endloop
  endfacet
  facet normal -0.951056 0.309017 0
    outer loop
      vertex -4.89074 1.03956 0
      vertex -4.89074 1.03956 11.6
      vertex -4.56773 2.03368 0
    endloop
  endfacet
  facet normal -0.951056 0.309017 0
    outer loop
      vertex -4.56773 2.03368 0
      vertex -4.89074 1.03956 11.6
      vertex -4.56773 2.03368 11.6
    endloop
  endfacet
  facet normal 0.987688 -0.156434 0
    outer loop
      vertex -2.18743 0.710739 0
      vertex -2.18743 0.710739 11.6
      vertex -2.3 0 11.6
    endloop
  endfacet
  facet normal 0.987688 -0.156434 0
    outer loop
      vertex -2.3 0 0
      vertex -2.18743 0.710739 0
      vertex -2.3 0 11.6
    endloop
  endfacet
  facet normal 0.987688 0.156434 0
    outer loop
      vertex -2.3 0 11.6
      vertex -2.18743 -0.710739 11.6
      vertex -2.18743 -0.710739 0
    endloop
  endfacet
  facet normal 0.987688 0.156434 0
    outer loop
      vertex -2.3 0 0
      vertex -2.3 0 11.6
      vertex -2.18743 -0.710739 0
    endloop
  endfacet
  facet normal 0.891006 -0.453991 0
    outer loop
      vertex -1.86074 1.35191 0
      vertex -1.86074 1.35191 11.6
      vertex -2.18743 0.710739 11.6
    endloop
  endfacet
  facet normal 0.891006 -0.453991 0
    outer loop
      vertex -2.18743 0.710739 0
      vertex -1.86074 1.35191 0
      vertex -2.18743 0.710739 11.6
    endloop
  endfacet
  facet normal 0.707107 -0.707107 0
    outer loop
      vertex -1.35191 1.86074 0
      vertex -1.35191 1.86074 11.6
      vertex -1.86074 1.35191 11.6
    endloop
  endfacet
  facet normal 0.707107 -0.707107 0
    outer loop
      vertex -1.86074 1.35191 0
      vertex -1.35191 1.86074 0
      vertex -1.86074 1.35191 11.6
    endloop
  endfacet
  facet normal 0.453991 -0.891006 0
    outer loop
      vertex -0.710739 2.18743 0
      vertex -0.710739 2.18743 11.6
      vertex -1.35191 1.86074 11.6
    endloop
  endfacet
  facet normal 0.453991 -0.891006 0
    outer loop
      vertex -1.35191 1.86074 0
      vertex -0.710739 2.18743 0
      vertex -1.35191 1.86074 11.6
    endloop
  endfacet
  facet normal 0.156434 -0.987688 0
    outer loop
      vertex 0 2.3 0
      vertex 0 2.3 11.6
      vertex -0.710739 2.18743 11.6
    endloop
  endfacet
  facet normal 0.156434 -0.987688 0
    outer loop
      vertex -0.710739 2.18743 0
      vertex 0 2.3 0
      vertex -0.710739 2.18743 11.6
    endloop
  endfacet
  facet normal -0.156434 -0.987688 0
    outer loop
      vertex 0.710739 2.18743 0
      vertex 0.710739 2.18743 11.6
      vertex 0 2.3 11.6
    endloop
  endfacet
  facet normal -0.156434 -0.987688 0
    outer loop
      vertex 0 2.3 0
      vertex 0.710739 2.18743 0
      vertex 0 2.3 11.6
    endloop
  endfacet
  facet normal -0.453991 -0.891006 0
    outer loop
      vertex 1.35191 1.86074 0
      vertex 1.35191 1.86074 11.6
      vertex 0.710739 2.18743 11.6
    endloop
  endfacet
  facet normal -0.453991 -0.891006 0
    outer loop
      vertex 0.710739 2.18743 0
      vertex 1.35191 1.86074 0
      vertex 0.710739 2.18743 11.6
    endloop
  endfacet
  facet normal -0.707107 -0.707107 0
    outer loop
      vertex 1.86074 1.35191 0
      vertex 1.86074 1.35191 11.6
      vertex 1.35191 1.86074 11.6
    endloop
  endfacet
  facet normal -0.707107 -0.707107 0
    outer loop
      vertex 1.35191 1.86074 0
      vertex 1.86074 1.35191 0
      vertex 1.35191 1.86074 11.6
    endloop
  endfacet
  facet normal -0.891006 -0.453991 0
    outer loop
      vertex 2.18743 0.710739 11.6
      vertex 1.86074 1.35191 11.6
      vertex 2.18743 0.710739 0
    endloop
  endfacet
  facet normal -0.891006 -0.453991 0
    outer loop
      vertex 2.18743 0.710739 0
      vertex 1.86074 1.35191 11.6
      vertex 1.86074 1.35191 0
    endloop
  endfacet
  facet normal -0.987688 -0.156434 0
    outer loop
      vertex 2.3 0 11.6
      vertex 2.18743 0.710739 11.6
      vertex 2.3 0 0
    endloop
  endfacet
  facet normal -0.987688 -0.156434 0
    outer loop
      vertex 2.3 0 0
      vertex 2.18743 0.710739 11.6
      vertex 2.18743 0.710739 0
    endloop
  endfacet
  facet normal -0.987688 0.156434 0
    outer loop
      vertex 2.3 0 11.6
      vertex 2.3 0 0
      vertex 2.18743 -0.710739 11.6
    endloop
  endfacet
  facet normal -0.987688 0.156434 0
    outer loop
      vertex 2.18743 -0.710739 11.6
      vertex 2.3 0 0
      vertex 2.18743 -0.710739 0
    endloop
  endfacet
  facet normal -0.891006 0.453991 0
    outer loop
      vertex 2.18743 -0.710739 11.6
      vertex 2.18743 -0.710739 0
      vertex 1.86074 -1.35191 11.6
    endloop
  endfacet
  facet normal -0.891006 0.453991 0
    outer loop
      vertex 1.86074 -1.35191 11.6
      vertex 2.18743 -0.710739 0
      vertex 1.86074 -1.35191 0
    endloop
  endfacet
  facet normal -0.707107 0.707107 0
    outer loop
      vertex 1.86074 -1.35191 11.6
      vertex 1.86074 -1.35191 0
      vertex 1.35191 -1.86074 11.6
    endloop
  endfacet
  facet normal -0.707107 0.707107 0
    outer loop
      vertex 1.35191 -1.86074 11.6
      vertex 1.86074 -1.35191 0
      vertex 1.35191 -1.86074 0
    endloop
  endfacet
  facet normal -0.453991 0.891006 0
    outer loop
      vertex 1.35191 -1.86074 11.6
      vertex 1.35191 -1.86074 0
      vertex 0.710739 -2.18743 11.6
    endloop
  endfacet
  facet normal -0.453991 0.891006 0
    outer loop
      vertex 0.710739 -2.18743 11.6
      vertex 1.35191 -1.86074 0
      vertex 0.710739 -2.18743 0
    endloop
  endfacet
  facet normal -0.156434 0.987688 0
    outer loop
      vertex 0.710739 -2.18743 11.6
      vertex 0.710739 -2.18743 0
      vertex 0 -2.3 11.6
    endloop
  endfacet
  facet normal -0.156434 0.987688 0
    outer loop
      vertex 0 -2.3 11.6
      vertex 0.710739 -2.18743 0
      vertex 0 -2.3 0
    endloop
  endfacet
  facet normal 0.156434 0.987688 0
    outer loop
      vertex 0 -2.3 11.6
      vertex 0 -2.3 0
      vertex -0.710739 -2.18743 11.6
    endloop
  endfacet
  facet normal 0.156434 0.987688 0
    outer loop
      vertex -0.710739 -2.18743 11.6
      vertex 0 -2.3 0
      vertex -0.710739 -2.18743 0
    endloop
  endfacet
  facet normal 0.453991 0.891006 0
    outer loop
      vertex -0.710739 -2.18743 11.6
      vertex -0.710739 -2.18743 0
      vertex -1.35191 -1.86074 11.6
    endloop
  endfacet
  facet normal 0.453991 0.891006 0
    outer loop
      vertex -1.35191 -1.86074 11.6
      vertex -0.710739 -2.18743 0
      vertex -1.35191 -1.86074 0
    endloop
  endfacet
  facet normal 0.707107 0.707107 0
    outer loop
      vertex -1.35191 -1.86074 11.6
      vertex -1.35191 -1.86074 0
      vertex -1.86074 -1.35191 11.6
    endloop
  endfacet
  facet normal 0.707107 0.707107 0
    outer loop
      vertex -1.86074 -1.35191 11.6
      vertex -1.35191 -1.86074 0
      vertex -1.86074 -1.35191 0
    endloop
  endfacet
  facet normal 0.891006 0.453991 0
    outer loop
      vertex -2.18743 -0.710739 11.6
      vertex -1.86074 -1.35191 11.6
      vertex -1.86074 -1.35191 0
    endloop
  endfacet
  facet normal 0.891006 0.453991 0
    outer loop
      vertex -2.18743 -0.710739 0
      vertex -2.18743 -0.710739 11.6
      vertex -1.86074 -1.35191 0
    endloop
  endfacet
  facet normal 0 0 1
    outer loop
      vertex -4.89074 1.03956 11.6
      vertex -5 0 11.6
      vertex -4.89074 -1.03956 11.6
    endloop
  endfacet
  facet normal 0 0 1
    outer loop
      vertex -4.04508 -2.93893 11.6
      vertex -4.89074 1.03956 11.6
      vertex -4.56773 -2.03368 11.6
    endloop
  endfacet
  facet normal 0 0 1
    outer loop
      vertex -4.56773 -2.03368 11.6
      vertex -4.89074 1.03956 11.6
      vertex -4.89074 -1.03956 11.6
    endloop
  endfacet
  facet normal 0 0 1
    outer loop
      vertex -3.34565 -3.71572 11.6
      vertex -4.89074 1.03956 11.6
      vertex -4.04508 -2.93893 11.6
    endloop
  endfacet
  facet normal 0 0 1
    outer loop
      vertex -2.5 -4.33013 11.6
      vertex -4.89074 1.03956 11.6
      vertex -3.34565 -3.71572 11.6
    endloop
  endfacet
  facet normal 0 0 1
    outer loop
      vertex -1.54508 -4.75528 11.6
      vertex -4.89074 1.03956 11.6
      vertex -2.5 -4.33013 11.6
    endloop
  endfacet
  facet normal 0 0 1
    outer loop
      vertex -0.522642 -4.97261 11.6
      vertex -4.89074 1.03956 11.6
      vertex -1.54508 -4.75528 11.6
    endloop
  endfacet
  facet normal 0 0 1
    outer loop
      vertex 0.522642 -4.97261 11.6
      vertex -4.89074 1.03956 11.6
      vertex -0.522642 -4.97261 11.6
    endloop
  endfacet
  facet normal 0 0 1
    outer loop
      vertex 1.54508 -4.75528 11.6
      vertex -4.89074 1.03956 11.6
      vertex 0.522642 -4.97261 11.6
    endloop
  endfacet
  facet normal 0 0 1
    outer loop
      vertex -1.35191 -1.86074 11.6
      vertex -4.89074 1.03956 11.6
      vertex 1.54508 -4.75528 11.6
    endloop
  endfacet
  facet normal 0 0 1
    outer loop
      vertex -2.3 0 11.6
      vertex -2.18743 0.710739 11.6
      vertex -4.89074 1.03956 11.6
    endloop
  endfacet
  facet normal 0 0 1
    outer loop
      vertex 2.3 0 11.6
      vertex 2.18743 -0.710739 11.6
      vertex 4.89074 -1.03956 11.6
    endloop
  endfacet
  facet normal 0 0 1
    outer loop
      vertex 1.86074 1.35191 11.6
      vertex 2.18743 0.710739 11.6
      vertex 4.89074 1.03956 11.6
    endloop
  endfacet
  facet normal 0 0 1
    outer loop
      vertex 2.5 4.33013 11.6
      vertex -4.89074 1.03956 11.6
      vertex 3.34565 3.71572 11.6
    endloop
  endfacet
  facet normal 0 0 1
    outer loop
      vertex 1.54508 4.75528 11.6
      vertex -4.89074 1.03956 11.6
      vertex 2.5 4.33013 11.6
    endloop
  endfacet
  facet normal 0 0 1
    outer loop
      vertex 0.522642 4.97261 11.6
      vertex -4.89074 1.03956 11.6
      vertex 1.54508 4.75528 11.6
    endloop
  endfacet
  facet normal 0 0 1
    outer loop
      vertex -0.522642 4.97261 11.6
      vertex -4.89074 1.03956 11.6
      vertex 0.522642 4.97261 11.6
    endloop
  endfacet
  facet normal 0 0 1
    outer loop
      vertex -1.54508 4.75528 11.6
      vertex -4.89074 1.03956 11.6
      vertex -0.522642 4.97261 11.6
    endloop
  endfacet
  facet normal 0 0 1
    outer loop
      vertex -2.5 4.33013 11.6
      vertex -4.89074 1.03956 11.6
      vertex -1.54508 4.75528 11.6
    endloop
  endfacet
  facet normal 0 0 1
    outer loop
      vertex -3.34565 3.71572 11.6
      vertex -4.89074 1.03956 11.6
      vertex -2.5 4.33013 11.6
    endloop
  endfacet
  facet normal 0 0 1
    outer loop
      vertex -4.04508 2.93893 11.6
      vertex -4.89074 1.03956 11.6
      vertex -3.34565 3.71572 11.6
    endloop
  endfacet
  facet normal 0 0 1
    outer loop
      vertex -4.56773 2.03368 11.6
      vertex -4.89074 1.03956 11.6
      vertex -4.04508 2.93893 11.6
    endloop
  endfacet
  facet normal 0 0 1
    outer loop
      vertex -1.86074 1.35191 11.6
      vertex -1.35191 1.86074 11.6
      vertex -4.89074 1.03956 11.6
    endloop
  endfacet
  facet normal 0 0 1
    outer loop
      vertex 0.710739 -2.18743 11.6
      vertex 0 -2.3 11.6
      vertex 3.34565 -3.71572 11.6
    endloop
  endfacet
  facet normal 0 0 1
    outer loop
      vertex -2.18743 0.710739 11.6
      vertex -1.86074 1.35191 11.6
      vertex -4.89074 1.03956 11.6
    endloop
  endfacet
  facet normal 0 0 1
    outer loop
      vertex 1.35191 1.86074 11.6
      vertex 1.86074 1.35191 11.6
      vertex 4.56773 2.03368 11.6
    endloop
  endfacet
  facet normal 0 0 1
    outer loop
      vertex -0.710739 2.18743 11.6
      vertex -4.89074 1.03956 11.6
      vertex -1.35191 1.86074 11.6
    endloop
  endfacet
  facet normal 0 0 1
    outer loop
      vertex 0 2.3 11.6
      vertex 0.710739 2.18743 11.6
      vertex 4.04508 2.93893 11.6
    endloop
  endfacet
  facet normal 0 0 1
    outer loop
      vertex 3.34565 3.71572 11.6
      vertex -4.89074 1.03956 11.6
      vertex -0.710739 2.18743 11.6
    endloop
  endfacet
  facet normal 0 0 1
    outer loop
      vertex 3.34565 3.71572 11.6
      vertex 0 2.3 11.6
      vertex 4.04508 2.93893 11.6
    endloop
  endfacet
  facet normal 0 0 1
    outer loop
      vertex 4.04508 2.93893 11.6
      vertex 0.710739 2.18743 11.6
      vertex 4.56773 2.03368 11.6
    endloop
  endfacet
  facet normal 0 0 1
    outer loop
      vertex -0.710739 2.18743 11.6
      vertex 0 2.3 11.6
      vertex 3.34565 3.71572 11.6
    endloop
  endfacet
  facet normal 0 0 1
    outer loop
      vertex 0.710739 2.18743 11.6
      vertex 1.35191 1.86074 11.6
      vertex 4.56773 2.03368 11.6
    endloop
  endfacet
  facet normal 0 0 1
    outer loop
      vertex 2.18743 0.710739 11.6
      vertex 2.3 0 11.6
      vertex 5 0 11.6
    endloop
  endfacet
  facet normal 0 0 1
    outer loop
      vertex 4.56773 2.03368 11.6
      vertex 1.86074 1.35191 11.6
      vertex 4.89074 1.03956 11.6
    endloop
  endfacet
  facet normal 0 0 1
    outer loop
      vertex 4.89074 1.03956 11.6
      vertex 2.18743 0.710739 11.6
      vertex 5 0 11.6
    endloop
  endfacet
  facet normal 0 0 1
    outer loop
      vertex 5 0 11.6
      vertex 2.3 0 11.6
      vertex 4.89074 -1.03956 11.6
    endloop
  endfacet
  facet normal 0 0 1
    outer loop
      vertex 4.89074 -1.03956 11.6
      vertex 2.18743 -0.710739 11.6
      vertex 4.56773 -2.03368 11.6
    endloop
  endfacet
  facet normal 0 0 1
    outer loop
      vertex 2.18743 -0.710739 11.6
      vertex 1.86074 -1.35191 11.6
      vertex 4.56773 -2.03368 11.6
    endloop
  endfacet
  facet normal 0 0 1
    outer loop
      vertex 4.56773 -2.03368 11.6
      vertex 1.86074 -1.35191 11.6
      vertex 4.04508 -2.93893 11.6
    endloop
  endfacet
  facet normal 0 0 1
    outer loop
      vertex 4.04508 -2.93893 11.6
      vertex 1.35191 -1.86074 11.6
      vertex 3.34565 -3.71572 11.6
    endloop
  endfacet
  facet normal 0 0 1
    outer loop
      vertex 1.35191 -1.86074 11.6
      vertex 0.710739 -2.18743 11.6
      vertex 3.34565 -3.71572 11.6
    endloop
  endfacet
  facet normal 0 0 1
    outer loop
      vertex 1.86074 -1.35191 11.6
      vertex 1.35191 -1.86074 11.6
      vertex 4.04508 -2.93893 11.6
    endloop
  endfacet
  facet normal 0 0 1
    outer loop
      vertex 3.34565 -3.71572 11.6
      vertex 0 -2.3 11.6
      vertex 2.5 -4.33013 11.6
    endloop
  endfacet
  facet normal 0 0 1
    outer loop
      vertex 2.5 -4.33013 11.6
      vertex -0.710739 -2.18743 11.6
      vertex 1.54508 -4.75528 11.6
    endloop
  endfacet
  facet normal 0 0 1
    outer loop
      vertex -0.710739 -2.18743 11.6
      vertex -1.35191 -1.86074 11.6
      vertex 1.54508 -4.75528 11.6
    endloop
  endfacet
  facet normal 0 0 1
    outer loop
      vertex -1.86074 -1.35191 11.6
      vertex -4.89074 1.03956 11.6
      vertex -1.35191 -1.86074 11.6
    endloop
  endfacet
  facet normal 0 0 1
    outer loop
      vertex 0 -2.3 11.6
      vertex -0.710739 -2.18743 11.6
      vertex 2.5 -4.33013 11.6
    endloop
  endfacet
  facet normal 0 0 1
    outer loop
      vertex -1.86074 -1.35191 11.6
      vertex -2.18743 -0.710739 11.6
      vertex -4.89074 1.03956 11.6
    endloop
  endfacet
  facet normal 0 0 1
    outer loop
      vertex -2.18743 -0.710739 11.6
      vertex -2.3 0 11.6
      vertex -4.89074 1.03956 11.6
    endloop
  endfacet
endsolid OpenSCAD_Model
